<?xml version="1.0" standalone="no"?><!DOCTYPE svg PUBLIC "-//W3C//DTD SVG 1.1//EN" "http://www.w3.org/Graphics/SVG/1.1/DTD/svg11.dtd"><svg t="1715400679051" class="icon" viewBox="0 0 1153 1024" version="1.1" xmlns="http://www.w3.org/2000/svg" p-id="3699" xmlns:xlink="http://www.w3.org/1999/xlink" width="256.72265625" height="228"><path d="M918.284427 75.37833L910.062602 1.471379a2992.485903 2992.485903 0 0 1-661.911612 0l-8.226796 73.906951c-103.975767-7.615379-202.090874 60.038214-220.970252 161.553398L7.436427 302.93499c-19.411262 103.642718 65.923728 206.748583 191.184777 220.299185 7.083495 0.770485 14.171961 1.526058 21.260427 2.251806 35.830058 88.829515 126.697631 164.724816 238.403107 171.718835l-3.121709 94.764737a3709.425087 3709.425087 0 0 1-66.470524-2.778718l-3.265864 64.521942a3810.139961 3810.139961 0 0 1-76.770175-4.66268l-11.487689 162.318913a3994.668738 3994.668738 0 0 0 563.871068 0l-11.48769-162.318913c-25.580117 1.809398-51.170175 3.365282-76.770174 4.66268l-3.265864-64.521942c-22.150214 1.123417-44.310369 2.048-66.470525 2.778718l-3.121709-94.764737c111.715417-6.994019 202.592932-82.88932 238.408078-171.718835 7.088466-0.725748 14.176932-1.48132 21.255456-2.251806 125.266019-13.555573 210.596039-116.661437 191.189748-220.299185l-11.517515-66.003262c-18.879379-101.520155-116.994485-169.168777-220.975223-161.553398z m-805.082718 244.268738l9.38998-66.341282c7.317126-49.852893 54.38633-84.698718 106.729631-82.615922l-26.693592 239.84466a211.674718 211.674718 0 0 0-1.108505 16.398913c-56.672932-9.703146-95.664466-57.28932-88.317514-107.286369z m931.810174 0c7.351922 49.997049-31.634641 97.583223-88.317514 107.281398a211.714485 211.714485 0 0 0-1.113476-16.393942l-26.688621-239.84466c52.343301-2.082796 99.412505 32.763029 106.729631 82.615922l9.38998 66.341282z" fill="#F8C51C" p-id="3700"></path><path d="M788.047534 288.047223a3276.506718 3276.506718 0 0 1-141.262291 5.989903 4003.651107 4003.651107 0 0 1-69.587262-137.350213 4159.492971 4159.492971 0 0 1-65.784544 137.345242 3267.827573 3267.827573 0 0 1-141.247379-5.984932 3070.92132 3070.92132 0 0 0 114.668117 101.649398 6774.406214 6774.406214 0 0 1-39.851495 129.536 3183.108971 3183.108971 0 0 0 132.036349-75.542369c46.47767 24.854369 93.964427 48.764272 142.435418 71.665088a6233.127767 6233.127767 0 0 1-46.447845-138.369243 3044.028893 3044.028893 0 0 0 115.040932-88.938874z" fill="#F8F8F8" p-id="3701"></path></svg>