<?xml version="1.0" standalone="no"?><!DOCTYPE svg PUBLIC "-//W3C//DTD SVG 1.1//EN" "http://www.w3.org/Graphics/SVG/1.1/DTD/svg11.dtd"><svg t="1715400551935" class="icon" viewBox="0 0 1024 1024" version="1.1" xmlns="http://www.w3.org/2000/svg" p-id="2031" xmlns:xlink="http://www.w3.org/1999/xlink" width="228" height="228"><path d="M549.688 104.508c-20.504-12.012-54.884-12.012-75.38 0-152.696 88.808-285.308 194.908-395.656 311.544-14.896 15.684-22.792 42.564-18.108 59.464l100.156 366.108c4.712 16.908 22.584 26.844 39.816 22.6a1299.372 1299.372 0 0 1 187.72-31.98c17.556-1.688 31.004-16.976 29.848-34.488l-15.976-225.9c-1.32-17.48 15.352-33.116 37.072-34.104a1590.388 1590.388 0 0 1 145.64 0c21.724 0.988 38.392 16.624 37.072 34.104l-15.976 225.9c-1.156 17.512 12.288 32.8 29.848 34.488a1299.372 1299.372 0 0 1 187.72 31.98c17.236 4.248 35.104-5.696 39.816-22.6l100.156-366.108c4.68-16.9-3.212-43.78-18.104-59.464-110.348-116.636-242.964-222.736-395.664-311.544z" fill="#99AE3F" p-id="2032"></path></svg>