<?xml version="1.0" standalone="no"?><!DOCTYPE svg PUBLIC "-//W3C//DTD SVG 1.1//EN" "http://www.w3.org/Graphics/SVG/1.1/DTD/svg11.dtd"><svg t="1715400653089" class="icon" viewBox="0 0 1024 1024" version="1.1" xmlns="http://www.w3.org/2000/svg" p-id="3032" xmlns:xlink="http://www.w3.org/1999/xlink" width="228" height="228"><path d="M860.179692 361.893415c16.868431 16.919631 30.983877 47.805046 31.168985 68.974277 1.851077 186.104123-10.153354 270.851938-36.021169 457.149046-3.008985 21.161354-22.646154 42.299077-43.370339 46.4384-199.514585 39.077415-399.029169 44.181662-598.547692 15.3088-20.720246-3.056246-40.440123-24.008862-43.547569-46.024861-38.3488-278.327138-46.891323-455.408246-25.62757-734.133169 1.725046-22.043569 21.748185-43.260062 44.232862-46.572308 129.705354-18.770708 259.414646-24.288492 389.12-16.545477 22.500431 1.287877 54.248369 17.258338 70.730831 34.961723 69.352369 74.460554 140.874831 149.421292 211.861661 220.443569z" fill="#E79800" p-id="3033"></path><path d="M593.471015 137.972185c-9.913108 89.533046-6.403938 178.991262 10.52357 268.382523 84.200369 10.944985 168.400738 9.263262 252.601107-5.049108-67.682462-71.471262-181.704862-185.422769-263.124677-263.333415z" fill="#FFFFFF" opacity=".5" p-id="3034"></path><path d="M682.169108 612.308677H292.253538c-21.752123 0-39.384615-17.636431-39.384615-39.384615s17.632492-39.384615 39.384615-39.384616h389.91557c21.748185 0 39.384615 17.636431 39.384615 39.384616s-17.636431 39.384615-39.384615 39.384615zM685.650708 785.600985H292.123569c-21.752123 0-39.384615-17.636431-39.384615-39.384616s17.632492-39.384615 39.384615-39.384615h393.527139c21.748185 0 39.384615 17.636431 39.384615 39.384615s-17.636431 39.384615-39.384615 39.384616zM473.501538 446.893292H292.986092c-21.752123 0-39.384615-17.632492-39.384615-39.384615s17.632492-39.384615 39.384615-39.384615h180.515446c21.752123 0 39.384615 17.632492 39.384616 39.384615s-17.632492 39.384615-39.384616 39.384615z" fill="#FFFFFF" p-id="3035"></path></svg>