<?xml version="1.0" standalone="no"?><!DOCTYPE svg PUBLIC "-//W3C//DTD SVG 1.1//EN" "http://www.w3.org/Graphics/SVG/1.1/DTD/svg11.dtd"><svg t="1715400628893" class="icon" viewBox="0 0 1057 1024" version="1.1" xmlns="http://www.w3.org/2000/svg" p-id="2531" xmlns:xlink="http://www.w3.org/1999/xlink" width="235.34765625" height="228"><path d="M921.965037 43.401481C660.873481-8.732444 399.781926-13.805037 138.69037 28.174222 96.175407 42.55763 54.859852 86.257778 45.492148 130.958222a2176.986074 2176.986074 0 0 0-16.744296 92.487111c334.383407-36.759704 668.335407-33.08563 1001.851259 11.026963a2100.920889 2100.920889 0 0 0-16.156444-88.912592c-9.040593-42.917926-50.010074-86.362074-92.47763-102.158223zM29.923556 889.92237c8.443259 49.806222 58.273185 99.143111 108.050963 107.169186 261.560889 40.291556 523.126519 35.209481 784.692148-15.255704 49.796741-10.05037 99.252148-59.339852 107.325629-107.074371 31.530667-195.294815 34.37037-390.641778 8.519111-586.045629-338.792296-35.356444-678.110815-38.300444-1017.955555-8.836741-26.742519 203.297185-23.61837 406.641778 9.367704 610.043259z" fill="#EBB149" p-id="2532"></path><path d="M353.152 527.013926c-60.155259 10.002963-120.315259 10.837333-180.470519 2.49837-12.055704-41.713778-10.875259-83.408593 3.536593-125.089185 57.799111-8.011852 115.598222-7.210667 173.397333 2.403556 13.89037 40.078222 15.070815 80.142222 3.536593 120.187259zM906.078815 527.013926c-60.155259 10.002963-120.315259 10.837333-180.470519 2.49837-12.055704-41.713778-10.875259-83.408593 3.536593-125.089185 57.799111-8.011852 115.598222-7.210667 173.397333 2.403556 13.895111 40.078222 15.075556 80.142222 3.536593 120.187259zM629.613037 527.013926c-60.155259 10.002963-120.315259 10.837333-180.470518 2.49837-12.055704-41.713778-10.875259-83.408593 3.536592-125.089185 57.799111-8.011852 115.598222-7.210667 173.397333 2.403556 13.89037 40.078222 15.070815 80.142222 3.536593 120.187259zM358.120296 778.600296c-60.155259 10.007704-120.315259 10.842074-180.470518 2.498371-12.055704-41.718519-10.875259-83.418074 3.536592-125.103408a572.069926 572.069926 0 0 1 173.397334 2.408297c13.895111 40.082963 15.070815 80.146963 3.536592 120.19674zM634.571852 778.600296c-60.155259 10.007704-120.310519 10.842074-180.465778 2.498371-12.055704-41.718519-10.875259-83.418074 3.536593-125.103408a572.036741 572.036741 0 0 1 173.392592 2.408297c13.895111 40.082963 15.075556 80.146963 3.536593 120.19674z" fill="#FFFFFF" p-id="2533"></path></svg>