<?xml version="1.0" standalone="no"?><!DOCTYPE svg PUBLIC "-//W3C//DTD SVG 1.1//EN" "http://www.w3.org/Graphics/SVG/1.1/DTD/svg11.dtd"><svg t="1715400568385" class="icon" viewBox="0 0 1028 1024" version="1.1" xmlns="http://www.w3.org/2000/svg" p-id="2197" xmlns:xlink="http://www.w3.org/1999/xlink" width="228.890625" height="228"><path d="M514.686214 3.524465c323.836428-4.243647 528.250642 198.713153 509.894846 508.475535-10.244763 309.300391-214.66374 515.181544-509.894846 511.309395C219.464633 1027.181544 15.045656 821.300391 4.79613 512-13.564428 202.242381 190.854549-0.714419 514.686214 3.524465z" fill="#83BE42" p-id="2198"></path><path d="M726.196986 435.533395H609.637209V319.502288c0-39.454958-31.986902-71.44186-71.44186-71.44186-39.454958 0-71.44186 31.986902-71.441861 71.44186v116.03587H350.193712c-39.454958 0-71.44186 31.986902-71.441861 71.441861 0 39.454958 31.986902 71.44186 71.441861 71.44186H466.753488v117.078921c0 39.454958 31.986902 71.44186 71.441861 71.44186 39.454958 0 71.44186-31.986902 71.44186-71.44186v-117.078921h116.559777c39.454958 0 71.44186-31.986902 71.441861-71.44186 0-39.454958-31.986902-71.446623-71.441861-71.446624z" fill="#FFFFFF" p-id="2199"></path></svg>