<?xml version="1.0" standalone="no"?><!DOCTYPE svg PUBLIC "-//W3C//DTD SVG 1.1//EN" "http://www.w3.org/Graphics/SVG/1.1/DTD/svg11.dtd"><svg t="1715400623116" class="icon" viewBox="0 0 1145 1024" version="1.1" xmlns="http://www.w3.org/2000/svg" p-id="2364" xmlns:xlink="http://www.w3.org/1999/xlink" width="254.94140625" height="228"><path d="M971.439543 199.070476a6397.932495 6397.932495 0 0 0-140.819505-8.796647c-22.654781-53.018819-23.210667-52.770133-45.207162-106.413105C748.495238-36.571429 382.780952-9.976686 358.970514 77.511924c-21.552762 53.677105-22.030629 53.633219-44.110019 107.095771-48.566857 1.423848-97.143467 3.408457-145.724952 5.944076C95.670857 194.789181 21.7088 263.82141 14.472533 341.577143a2780.672 2780.672 0 0 0 2.564877 512.414476c8.060343 77.745981 82.202819 149.518629 159.836647 156.140495 265.679238 21.0944 531.358476 16.432762 797.037714-13.984914 77.663086-9.5232 151.352076-80.974019 159.022324-155.462705a2670.982095 2670.982095 0 0 0 2.013867-492.256305c-7.02659-74.522819-80.5888-142.633448-163.508419-149.357714z" fill="#2DB194" p-id="2365"></path><path d="M575.390476 592.647314m-286.198247 0a286.198248 286.198248 0 1 0 572.396495 0 286.198248 286.198248 0 1 0-572.396495 0Z" fill="#FFFFFF" p-id="2366"></path></svg>