<?xml version="1.0" standalone="no"?><!DOCTYPE svg PUBLIC "-//W3C//DTD SVG 1.1//EN" "http://www.w3.org/Graphics/SVG/1.1/DTD/svg11.dtd"><svg t="1715400705930" class="icon" viewBox="0 0 1024 1024" version="1.1" xmlns="http://www.w3.org/2000/svg" p-id="4534" xmlns:xlink="http://www.w3.org/1999/xlink" width="228" height="228"><path d="M861.384862 485.088492c-3.005046 151.965538-17.238646 303.840492-42.704739 455.632739-201.826462 31.728246-403.656862 35.666708-605.487261 11.811446-26.360123-156.010338-41.007262-312.201846-43.945354-468.574523" fill="#E69300" p-id="4535"></path><path d="M563.767138 269.296246c0.555323 84.227938-68.415015 152.016738-153.249476 152.505108-84.795077 0.070892-154.123815-66.142523-151.083324-148.972308 3.351631-82.731323 74.625969-155.722831 155.478647-157.534523 80.892062-1.555692 147.9168 69.864369 148.854153 154.001723z" fill="#FFFFFF" p-id="4536"></path><path d="M410.379815 471.032123c-55.626831 0-109.182031-22.461046-146.932184-61.621169-36.210215-37.565046-55.110892-86.709169-53.212554-138.385723 4.407138-108.8 97.630523-202.570831 203.5712-204.949662 1.335138-0.023631 2.524554-0.035446 3.698215-0.035446 106.551138 0 194.248862 90.935138 195.489477 202.712615 0.3584 54.2208-20.657231 104.983631-59.167507 143.163077-38.144 37.813169-88.938338 58.805169-143.025231 59.116308h-0.421416z m7.120739-306.530461l-1.646277 0.015753c-54.720985 1.2288-104.900923 52.775385-107.232492 110.304493-0.901908 24.520862 8.231385 48.116185 25.714215 66.248861 19.294523 20.0192 47.013415 31.499815 76.043815 31.499816v49.230769l0.094523-49.230769c27.919754-0.161477 54.299569-11.019815 74.027324-30.582154 19.546585-19.377231 30.211938-45.079631 30.030769-72.369231-0.630154-56.879262-45.067815-105.117538-97.031877-105.117538z" fill="#E69300" p-id="4537"></path><path d="M744.030523 296.597662c1.855015 70.455138-57.852062 126.483692-131.040492 125.952-73.216-0.799508-132.726154-60.096985-132.304739-133.293293 0.669538-73.137231 59.013908-132.726154 129.732923-129.398154 70.691446 3.485538 131.564308 66.343385 133.612308 136.739447z" fill="#FFFFFF" p-id="4538"></path><path d="M614.017969 471.784369l-1.390277-0.003938c-100.5568-1.098831-181.752123-83.105477-181.177107-182.803693 0.925538-101.238154 82.955815-182.866708 181.279507-178.294153 96.756185 4.773415 177.683692 87.528369 180.511508 184.485415 1.205169 45.764923-15.860185 89.088-48.045292 122.127754-33.728985 34.626954-81.541908 54.488615-131.178339 54.488615z m-9.243569-262.829292c-40.869415 0-74.452677 36.225969-74.862277 80.750277-0.259938 45.524677 37.246031 83.109415 83.613539 83.613538h0.492307c23.232985 0 45.339569-9.015138 60.644431-24.7296 13.493169-13.851569 20.645415-31.854277 20.149169-50.699815-1.311508-45.056-41.885538-86.646154-86.823384-88.863508a75.551508 75.551508 0 0 0-3.213785-0.070892z" fill="#E69300" p-id="4539"></path><path d="M105.019077 322.922338a5812.015262 5812.015262 0 0 1 820.692677 6.908062c2.087385 53.303138 2.453662 106.606277 1.087015 159.909415a33240.276677 33240.276677 0 0 0-823.154215-1.213046 2543.387569 2543.387569 0 0 1 1.374523-165.604431z" fill="#FFFFFF" p-id="4540"></path><path d="M926.810585 538.970585l-0.697108-0.007877a33321.972185 33321.972185 0 0 0-459.5712-3.186216c-120.138831 0-242.053908 0.6656-362.362092 1.97317l-0.547447 0.003938c-26.683077 0.003938-48.557292-21.291323-49.207138-48.033477a2602.8032 2602.8032 0 0 1 1.402092-168.810338 49.230769 49.230769 0 0 1 46.135139-47.123693 5903.675077 5903.675077 0 0 1 364.792123-11.350646c153.666954 0 309.389785 6.163692 462.844061 18.317785a49.230769 49.230769 0 0 1 45.304123 47.151261c2.122831 54.153846 2.496985 109.024492 1.110647 163.095631-0.681354 26.718523-22.555569 47.970462-49.2032 47.970462z m-460.268308-101.655631c136.680369 0 274.963692 0.858585 411.797661 2.548184a2445.339569 2445.339569 0 0 0-0.504123-64.271753 5788.096985 5788.096985 0 0 0-411.076923-14.698339c-104.069908 0-209.474954 2.875077-313.966277 8.554339a2512.671508 2512.671508 0 0 0-0.630153 69.344492c104.664615-0.976738 210.183877-1.476923 314.379815-1.476923z" fill="#E69300" p-id="4541"></path><path d="M567.512615 965.856492c-33.197292 1.425723-66.394585 2.0992-99.591877 2.02437a19847.813908 19847.813908 0 0 1-7.333415-568.741416c38.010092-0.019692 76.016246 0.173292 114.014523 0.582892a21628.691692 21628.691692 0 0 1-7.089231 566.134154z" fill="#FFFFFF" p-id="4542"></path></svg>