<?xml version="1.0" standalone="no"?><!DOCTYPE svg PUBLIC "-//W3C//DTD SVG 1.1//EN" "http://www.w3.org/Graphics/SVG/1.1/DTD/svg11.dtd"><svg t="1715400658576" class="icon" viewBox="0 0 1024 1024" version="1.1" xmlns="http://www.w3.org/2000/svg" p-id="3200" xmlns:xlink="http://www.w3.org/1999/xlink" width="228" height="228"><path d="M508.506619 0.521062c82.690265 129.957381 239.031504 70.674124 236.358231 73.628319 43.252673 47.797239 88.050407 95.386053 133.477946 141.321061 1.318513-3.493381-123.931186 73.03023-53.302371 183.894089 34.716319 62.296354 108.158867 145.620956 84.724672 257.105557-19.918159 109.24177-136.713062 246.648071-401.253947 365.368638-264.898832-120.057204-379.292319-256.403257-396.605168-365.454726-20.85154-111.104 55.386619-194.913416 90.007788-257.250549C272.492743 288.156319 147.107115 211.229451 148.430159 214.686584c45.373168-45.953133 90.098407-93.519292 133.274053-141.262159-2.569062-2.623434 143.785912 57.783504 226.802407-72.903363z" fill="#2DB194" p-id="3201"></path><path d="M491.542655 396.890619c10.84715-22.038655 28.413735-22.038655 39.269947 0a27695.484602 27695.484602 0 0 0 25.033628 50.73331c10.89246 22.029593 39.677735 42.926442 63.945628 46.465133 18.644956 2.736708 37.294442 5.464354 55.94393 8.160283 24.29508 3.543221 29.782088 19.927221 12.147539 36.777912-13.538549 12.958584-27.108814 26.044035-40.679079 39.19292-17.670796 17.113487-28.894018 50.842053-25.115186 74.738407 2.908885 18.345912 5.740743 36.660106 8.491044 54.938053 3.529628 23.755894-10.756531 34.725381-31.784779 23.986974-16.175575-8.273558-32.446301-16.723823-48.794053-25.310018-21.281982-11.150726-56.387965-11.150726-77.669947 0-16.347752 8.586195-32.623009 17.03646-48.803115 25.310018-21.019186 10.738407-35.305345-0.23108-31.771185-23.986974a7037.915752 7037.915752 0 0 1 8.481982-54.938053c3.783363-23.896354-7.435327-57.62492-25.101593-74.738407a8999.963186 8999.963186 0 0 0-40.67908-39.19292c-17.643611-16.855221-12.143009-33.230159 12.143009-36.777912 18.649487-2.70046 37.294442-5.423575 55.943929-8.160283 24.281487-3.53869 53.057699-24.43554 63.945629-46.465133 8.368708-16.905062 16.728354-33.819186 25.051752-50.73331z" fill="#FFFFFF" p-id="3202"></path></svg>