<?xml version="1.0" standalone="no"?><!DOCTYPE svg PUBLIC "-//W3C//DTD SVG 1.1//EN" "http://www.w3.org/Graphics/SVG/1.1/DTD/svg11.dtd"><svg t="1715400693238" class="icon" viewBox="0 0 1113 1024" version="1.1" xmlns="http://www.w3.org/2000/svg" p-id="4200" xmlns:xlink="http://www.w3.org/1999/xlink" width="247.81640625" height="228"><path d="M1078.426097 838.720621c-14.301204 67.52435-91.488932 138.69235-165.202019 152.203185-237.662447 40.527534-475.319922 40.527534-712.972428 0-73.713087-13.510835-150.900816-84.678835-165.211961-152.203185-42.943379-217.808777-42.943379-435.622524 0-653.441242C49.340893 117.76 126.533592 46.572117 200.25165 33.071223c237.647534-40.527534 475.309981-40.527534 712.972428 0 73.703146 13.500893 150.890874 84.678835 165.202019 152.208156 42.95332 217.808777 42.95332 435.627495 0 653.441242z" fill="#4080CF" p-id="4201"></path><path d="M855.368078 581.17965c-26.345631-14.16699-46.562175-37.535068-44.797515-51.304388 0 0 0.014913 0 0.019884-12.909359-0.004971-12.909359-0.024854-12.909359-0.019884-12.909359-1.76466-13.774291 18.451883-37.137398 44.797515-51.304389 26.430136-14.261437 34.005748-47.21833 16.826407-74.503456-9.847301-15.722874-19.744311-31.565049-29.661203-47.511612-17.303612-27.677825-51.930718-39.960854-77.376622-26.077204-25.520466 13.833942-56.429359 18.809786-68.215301 10.369243-11.880388-8.435573-46.333515-50.340039-46.915107-81.050097-0.780427-30.655379-26.484816-56.658019-56.951301-56.986097a2526.411806 2526.411806 0 0 0-52.800621 0c-30.461515 0.333049-56.160932 26.335689-56.941359 56.986097-0.656155 30.700117-11.641786 61.106951-24.610796 67.623767-12.889476 6.482019-64.949437 16.856233-90.514641 3.057087-25.450874-13.87868-60.077981-1.605592-77.381592 26.077204a15778.279146 15778.279146 0 0 1-29.661204 47.511612c-17.17934 27.285126-9.603728 60.237049 16.831379 74.503456 26.34066 14.162019 46.557204 37.535068 44.787572 51.304389 0.004971 0-0.009942 0-0.019883 12.909359 0.009942 12.91433 0.024854 12.91433 0.019883 12.91433 1.769631 13.774291-18.441942 37.14734-44.787572 51.304388-26.435107 14.261437-34.005748 47.223301-16.831379 74.493515 9.847301 15.722874 19.744311 31.570019 29.661204 47.516582 17.303612 27.682796 51.935689 39.960854 77.381592 26.077204 25.520466-13.833942 56.424388-18.804816 68.21033-10.364272 11.880388 8.415689 46.343456 50.340039 46.915107 81.050098 0.780427 30.650408 26.479845 56.653049 56.941359 56.986097 17.601864 0.183922 35.198757 0.183922 52.800621 0 30.466485-0.328078 56.170874-26.34066 56.951301-56.986097 0.661126-30.705087 11.636816-61.111922 24.610797-67.623767 12.889476-6.482019 64.954408-16.856233 90.51464-3.057088 25.445903 13.873709 60.077981 1.605592 77.376622-26.077204 9.916893-15.946563 19.808932-31.793709 29.661204-47.516582 17.17934-27.285126 9.61367-60.237049-16.821437-74.503457zM566.679612 609.319767c-50.732738-0.049709-92.319068-41.675806-92.363806-92.353864 0.039767-50.678058 41.631068-92.314097 92.363806-92.358835 50.727767 0.049709 92.319068 41.680777 92.358835 92.358835-0.044738 50.678058-41.631068 92.304155-92.358835 92.353864z" fill="#FFFFFF" p-id="4202"></path></svg>