<?xml version="1.0" standalone="no"?><!DOCTYPE svg PUBLIC "-//W3C//DTD SVG 1.1//EN" "http://www.w3.org/Graphics/SVG/1.1/DTD/svg11.dtd"><svg t="1715400698695" class="icon" viewBox="0 0 1024 1024" version="1.1" xmlns="http://www.w3.org/2000/svg" p-id="4367" xmlns:xlink="http://www.w3.org/1999/xlink" width="228" height="228"><path d="M829.325693 846.538419a2843.043126 2843.043126 0 0 0 19.313116-393.339833c-2.495702-111.58266-92.645805-221.974623-204.23799-279.423405l2.500465 0.147647c-86.530381-39.654995-5.172391-125.647181-6.486921-124.861321C676.973544 21.908837 524.0832-12.764279 439.524614 8.034828c-85.530195 18.822549-48.285172 40.621842-48.013693 40.221767 74.656744 54.024335 27.181247 102.033265-0.73347 120.117582C273.836651 223.498716 177.861656 338.081935 175.208781 453.198586a2842.976447 2842.976447 0 0 0 19.313117 393.33507C158.281823 845.99546 134.253544 865.694363 139.978419 896.838251c6.567888 35.077953 46.532465 75.494995 87.525804 86.4256 189.616223 48.86147 379.227684 48.866233 568.839144 0 41.002865-10.935367 80.967442-51.347647 87.535331-86.4256 5.724874-31.139126-18.303405-50.842791-54.553005-50.299832z" fill="#D6AC88" p-id="4368"></path><path d="M501.912409 664.571237c-0.042865-29.929377-0.071442-59.858753-0.090493-89.792893-30.83907-8.044353-53.500428-20.256149-67.950735-36.416297-14.426493-16.193488-21.661172-35.701879-21.599255-58.658531 0.066679-23.237656 8.339647-42.83654 24.685544-58.849042 16.345898-15.998214 37.964205-25.390437 64.907311-27.871851l0.023814-21.356353c11.330679-0.023814 22.661358-0.004763 33.9968 0.047628l0.061917 21.35159c24.990363 2.824335 44.908353 10.787721 59.792074 23.652019 14.898009 12.86906 24.514084 29.910326 28.691051 51.128558-19.917991 2.257563-39.840744 4.572279-59.76826 6.929861-3.748316-16.917433-13.302474-28.443386-28.624372-34.506419 0.042865 27.914716 0.057153 55.838958 0.05239 83.758437 37.92134 9.273153 63.77853 21.189656 77.514419 35.768558 13.740651 14.593191 20.484763 33.239516 20.213284 56.143777-0.300056 25.56666-9.311256 47.346902-26.695442 65.374065-17.403237 17.979535-41.212428 29.481674-71.479963 33.901544-0.057153 13.316763-0.123833 26.638288-0.195274 39.959814-11.125879 0.095256-22.256521 0.11907-33.387163 0.085731l-0.080968-39.293024c-26.752595-3.052949-48.57094-12.535665-65.559814-28.0576-16.988874-15.550512-28.109991-37.206921-33.115683-64.893023 20.441898-1.80986 40.893321-3.743553 61.359032-5.782028 2.557619 11.34973 7.301358 21.151553 14.231219 29.414995 6.920335 8.253916 14.593191 14.25027 23.018567 17.960484z m-0.080967-224.713228c-9.273153 2.676688-16.617377 7.45853-22.018382 14.321712-5.386716 6.872707-8.091981 14.426493-8.101507 22.718512-0.009526 7.549023 2.448074 14.583665 7.358512 21.075348s12.488037 11.735516 22.742326 15.736261c0-24.618865 0.009526-49.23773 0.019051-73.851833z m34.001563 228.090047c11.735516-2.352819 21.361116-7.568074 28.905376-15.540986 7.501395-8.006251 11.321153-17.346084 11.392596-28.009972 0.066679-9.568447-3.029135-17.755684-9.344596-24.618865-6.296409-6.882233-16.564986-12.121302-30.743814-15.80294-0.047628 27.995684-0.114307 55.981842-0.209562 83.972763z" fill="#F8F8F8" p-id="4369"></path></svg>